<svg xmlns="http://www.w3.org/2000/svg" xmlns:xlink="http://www.w3.org/1999/xlink" width="1080" height="1080" viewBox="0 0 1080 1080">
  <defs>
    <filter id="Path_20" x="432.063" y="428.939" width="206.416" height="125.76" filterUnits="userSpaceOnUse">
      <feOffset dy="3" input="SourceAlpha"/>
      <feGaussianBlur stdDeviation="3" result="blur"/>
      <feFlood flood-color="#fce014"/>
      <feComposite operator="in" in2="blur"/>
      <feComposite in="SourceGraphic"/>
    </filter>
    <filter id="Path_21" x="312.264" y="402.348" width="160.004" height="216.751" filterUnits="userSpaceOnUse">
      <feOffset dx="5" dy="7" input="SourceAlpha"/>
      <feGaussianBlur stdDeviation="5.5" result="blur-2"/>
      <feFlood flood-color="#fce014"/>
      <feComposite operator="in" in2="blur-2"/>
      <feComposite in="SourceGraphic"/>
    </filter>
    <filter id="Path_22" x="815.771" y="437.49" width="96.541" height="115.241" filterUnits="userSpaceOnUse">
      <feOffset dx="5" dy="7" input="SourceAlpha"/>
      <feGaussianBlur stdDeviation="5.5" result="blur-3"/>
      <feFlood flood-color="#e00885"/>
      <feComposite operator="in" in2="blur-3"/>
      <feComposite in="SourceGraphic"/>
    </filter>
    <filter id="Path_23" x="715.205" y="420.256" width="143.008" height="146.588" filterUnits="userSpaceOnUse">
      <feOffset dx="5" dy="7" input="SourceAlpha"/>
      <feGaussianBlur stdDeviation="5.5" result="blur-4"/>
      <feFlood flood-color="#ea0330"/>
      <feComposite operator="in" in2="blur-4"/>
      <feComposite in="SourceGraphic"/>
    </filter>
    <filter id="Path_24" x="618.869" y="466.246" width="117.982" height="56.759" filterUnits="userSpaceOnUse">
      <feOffset dx="5" dy="7" input="SourceAlpha"/>
      <feGaussianBlur stdDeviation="5.5" result="blur-5"/>
      <feFlood flood-color="#ea0330"/>
      <feComposite operator="in" in2="blur-5"/>
      <feComposite in="SourceGraphic"/>
    </filter>
    <filter id="Path_26" x="429.563" y="425.439" width="221.416" height="140.76" filterUnits="userSpaceOnUse">
      <feOffset dx="5" dy="7" input="SourceAlpha"/>
      <feGaussianBlur stdDeviation="5.5" result="blur-6"/>
      <feFlood flood-color="#ea0330"/>
      <feComposite operator="in" in2="blur-6"/>
      <feComposite in="SourceGraphic"/>
    </filter>
    <filter id="Path_36" x="177.689" y="415.138" width="172.686" height="155.913" filterUnits="userSpaceOnUse">
      <feOffset dx="5" dy="7" input="SourceAlpha"/>
      <feGaussianBlur stdDeviation="5.5" result="blur-7"/>
      <feFlood flood-color="#02a3d7"/>
      <feComposite operator="in" in2="blur-7"/>
      <feComposite in="SourceGraphic"/>
    </filter>
    <filter id="Path_19" x="237.404" y="415.138" width="106.559" height="138.006" filterUnits="userSpaceOnUse">
      <feOffset dx="5" dy="7" input="SourceAlpha"/>
      <feGaussianBlur stdDeviation="5.5" result="blur-8"/>
      <feFlood flood-color="#fde855"/>
      <feComposite operator="in" in2="blur-8"/>
      <feComposite in="SourceGraphic"/>
    </filter>
    <clipPath id="clip-TOBAC-GO_Final_BG_Gradient">
      <rect width="1080" height="1080"/>
    </clipPath>
  </defs>
  <g id="TOBAC-GO_Final_BG_Gradient" data-name="TOBAC-GO – Final – BG Gradient" clip-path="url(#clip-TOBAC-GO_Final_BG_Gradient)">
    <g id="Group_2" data-name="Group 2" transform="translate(189.188 411.848)">
      <g transform="matrix(1, 0, 0, 1, -189.19, -411.85)" filter="url(#Path_20)">
        <path id="Path_20-2" data-name="Path 20" d="M250.006-1281.809c-3.467-7.263-6.24-13.173-9.706-20.436,3.5-6.9,4.853-8.617,4.853-20.436,9.409-2.674,5.381-.264,8.32-9.112,27.634-83.528-17.267-44.57,49.919-44.57,1.023,12.843,28.657,57.908,36.416,63.884,0-7.56,0-13.338.231-17.993.891-19.776,25.058-48.994,44.6-48.664,9.31.165,16.276,7.56,28,10.433-7.428,10.664-15.913,3.764-29.813,17.2-33.081,31.992-13.734,54.475,2.608,51.537,14.329-2.542,15.319-13.5,24.761-20.172l9.706,17.894c-12.711,25.323-32.817,24.068-63.224,23.111-24.167-.759-36.713-23.375-50.843-33.345-7.065,0-26.874,2.773-30.77,5.943-5.15,4.16-10.3,17.993-10.6,27.667Zm48.532-43.448c-8.551-2.08-7.957-2.542-19.413-2.542,1.915-24.332,3.236-19.875,7.3-23.011C288.007-1344.439,295.336-1331.662,298.539-1325.257ZM428.717-1376.3c-7.23-10.334-25.389-10.2-36.416-10.2C398.046-1374.417,416.6-1376.3,428.717-1376.3Z" transform="translate(200.76 1821.44)" fill="#1c1a1b" fill-rule="evenodd"/>
      </g>
      <g transform="matrix(1, 0, 0, 1, -189.19, -411.85)" filter="url(#Path_21)">
        <path id="Path_21-2" data-name="Path 21" d="M2.314-1349.1l9.706,20.437c-6.5,29.35-44.207,40.575-67.153,51.966-11.324,5.646-9.343,6.009-22.681-3.4,25.818-51.338,12.546-40.939,7.3-56.225h21.856c10.466,16.442,6.7,16.343,2.41,35.788,8.023-4.49,21.427-10.135,26.874-17.729,15.814-22.054-17.135-39.783-53.583-30.836v45.99c-9.343-.825-7.825-2.542-19.413-2.542,0-24.563-.792-42.556-2.476-63.851-.693-9.31-3.5-17.432-5.778-27.138-2.278-9.772-5.613-17.663-9.938-34.237-12.48-27.006,3.731-25.553,20.634-25.553,20.568,32.322,16.541,36.713,60.649,69.034,9.706,7.131,14.989,9.574,21.889,20.4-1.948,7.56-.99,4.127-4.82,10.136Zm-80.128-53.682,31.727,22.846c7.56,6.339,2.806,3.467,7.131,12.942-13.008,7.23-14.56,5.117-34.006,5.117C-72.96-1373.857-73.984-1393.765-77.813-1402.778Z" transform="translate(438.75 1868.29)" fill-rule="evenodd"/>
      </g>
      <g transform="matrix(1, 0, 0, 1, -189.19, -411.85)" filter="url(#Path_22)">
        <path id="Path_22-2" data-name="Path 22" d="M1447.77-1346.038c-9.706-7.792-27.072-2.245-37.67,1.023C1418.816-1335.143,1436.149-1342.44,1447.77-1346.038Zm-28.228,32.454-2.443,17.894c12.183,55.036,76.1,19.116,50.579-25.125-6.042-10.466-9.971-12.414-19.677-17.63-.5-.231-.958-.429-1.354-.594l-28.261,3,10.565,9.673c13.074,10.928,30.407,20.965,17.3,43.448-12.149-8.551-10.994-18.885-4.358-30.143l-15.352-12.843C1422.084-1319.1,1421.853-1322.73,1419.542-1313.585Z" transform="translate(-582.83 1796.99)" fill-rule="evenodd"/>
      </g>
      <g transform="matrix(1, 0, 0, 1, -189.19, -411.85)" filter="url(#Path_23)">
        <path id="Path_23-2" data-name="Path 23" d="M1194.274-1386.947c-5.844-11.258-23.837-13.7-34.8-15.253C1163.636-1389.423,1182.257-1388.631,1194.274-1386.947Zm21.229,38.4-2.344,17.894-17.531,19.941c-32.916,44.273-83.66,12.975-88.976-15.22-4.919-25.884,6.537-41.17,21.295-52.362,3.334-2.542,10.235-7.56,14.031-9.74,16.607-9.541,23.738,2.971,39.882,6.933-5.712,4.457-30.605,10.268-36.185,20.4-7.792,8.188-15.22,21.031-14.625,32.322,1.552,29.284,42.688,24.5,57.743,2.839-16.8,0-42.688,1.155-26.709-30.671,4.688,3.6,7.528,14.527,23.7,12.381C1194.67-1344.985,1203.815-1348.319,1215.5-1348.55Z" transform="translate(-378.79 1831.96)" fill-rule="evenodd"/>
      </g>
      <g transform="matrix(1, 0, 0, 1, -189.19, -411.85)" filter="url(#Path_24)">
        <path id="Path_24-2" data-name="Path 24" d="M813.7-1247.581v7.692c25.719,0,67.648,3.632,84.981-5.117V-1262.9c-32.289,7.924-34.963,7.99-65.568,7.627C822.845-1255.373,813.7-1258.179,813.7-1247.581Z" transform="translate(-183.33 1738.65)" fill-rule="evenodd"/>
      </g>
      <g transform="matrix(1, 0, 0, 1, -189.19, -411.85)" filter="url(#Path_26)">
        <path id="Path_26-2" data-name="Path 26" d="M250.006-1281.809c-3.467-7.263-6.24-13.173-9.706-20.436,3.5-6.9,4.853-8.617,4.853-20.436,9.409-2.674,5.381-.264,8.32-9.112,27.634-83.528-17.267-44.57,49.919-44.57,1.023,12.843,28.657,57.908,36.416,63.884,0-7.56,0-13.338.231-17.993.891-19.776,25.058-48.994,44.6-48.664,9.31.165,16.276,7.56,28,10.433-7.428,10.664-15.913,3.764-29.813,17.2-33.081,31.992-13.734,54.475,2.608,51.537,14.329-2.542,15.319-13.5,24.761-20.172l9.706,17.894c-12.711,25.323-32.817,24.068-63.224,23.111-24.167-.759-36.713-23.375-50.843-33.345-7.065,0-26.874,2.773-30.77,5.943-5.15,4.16-10.3,17.993-10.6,27.667Zm48.532-43.448c-8.551-2.08-7.957-2.542-19.413-2.542,1.915-24.332,3.236-19.875,7.3-23.011C288.007-1344.439,295.336-1331.662,298.539-1325.257ZM428.717-1376.3c-7.23-10.334-25.389-10.2-36.416-10.2C398.046-1374.417,416.6-1376.3,428.717-1376.3Z" transform="translate(200.76 1821.44)" fill-rule="evenodd"/>
      </g>
      <g transform="matrix(1, 0, 0, 1, -189.19, -411.85)" filter="url(#Path_36)">
        <path id="Path_36-2" data-name="Path 36" d="M-387.965-1412.582l5.051,15.418c-14.395.792-22.615,7.2-38.331,7.56l2.542,4.061-21.658,8.287-10-4.655c-7.362,14.626-17,41.83-17,63.884,6.9-3,14.13,1.651,24.266,2.542-3.764,5.943-7.726,10.07-9.706,17.894-7.032,0-11.588.165-15.616.99-13.305,2.674-16.309,5.249-19.941-14.659-3.7-20.271,1.056-56.39,8.815-72.765l-43.052-3c.4-18.786,3.8-18.588,52.824-15.352,1.717-7.791,3.764-9.805,7.263-15.319h24.3c-1.288,5.811-1.882,5.877-2.443,12.777a142.2,142.2,0,0,0,29.185-3.367C-402.128-1410.205-394.3-1412.285-387.965-1412.582Z" transform="translate(711.79 1842.34)" fill-rule="evenodd"/>
      </g>
      <g transform="matrix(1, 0, 0, 1, -189.19, -411.85)" filter="url(#Path_19)">
        <path id="Path_19-2" data-name="Path 19" d="M-416.721-1327.833c-12.15-8.551-10.961-18.885-4.358-30.143l-15.352-12.876c-2.476,3.83-3.665,4.358-4.622,5.712-4.952,7-5.91,22.054-3.236,30.209,15.187,46.683,73.591,11.819,48.994-30.8-6.042-10.5-9.938-12.447-19.677-17.63-.5-.231-.957-.429-1.354-.594l-1.09.1-21.889,7.725C-420.947-1360.353-403.581-1350.316-416.721-1327.833Zm-45.792-89.867C-454.988-1415.8-464.868-1413.989-462.513-1417.7Z" transform="translate(711.79 1842.34)" fill-rule="evenodd"/>
      </g>
    </g>
    <path id="Path_25" data-name="Path 25" d="M-461.691-833.917l15.763-2.1a4.117,4.117,0,0,0,1.78.421c1.877,0,2.622-.906,2.622-3.042,0-1.262-.906-2.719-1.974-2.719a4.633,4.633,0,0,0-2.169.518l-16.022,2.136v-8.059l16.9-2.2a4.663,4.663,0,0,0,2.072.518c2.007,0,2.848-.841,2.848-3.4,0-1.359-1.068-2.363-2.945-2.363-.842,0-1.23.453-1.877.518l-16.9,2.136c.421-1.036-.388-1.942-1.974-1.942-1.683,0-3.593.906-3.5,2.492-.647.032-1.036,1.359-1.036,2.46a3.383,3.383,0,0,0,.939,2.4v7.542a5.632,5.632,0,0,0-.842,2.784,4.207,4.207,0,0,0,.842,2.589v8.8a3.588,3.588,0,0,0-.874,2.719c0,1.586,1.068,2.363,3.3,2.363,1.91,0,3.625-.939,3.625-2.622a3.634,3.634,0,0,0-.583-1.942Zm39.326-9.225c-9.872,0-18.19,6.8-18.19,16.087,0,5.7,5.276,8.318,9.1,8.318,5.858,0,9-.971,14.112-4.985,1.586-1.23,5.082-5.114,5.082-9.516,0-3.787-1.942-9.9-10.034-9.9Zm-.777,4.337c3.916,0,5.438,2.622,5.438,5.859a9.3,9.3,0,0,1-4.3,7.185,13.087,13.087,0,0,1-8.254,2.686,4.8,4.8,0,0,1-4.887-4.823c0-5.923,5.988-10.908,11.944-10.908Zm16.378,15.892a1.79,1.79,0,0,0-.712,1.392c0,1.327.906,2.1,2.784,2.1,2.848,0,3.819-.777,3.819-2.4a3.27,3.27,0,0,0-.583-1.618v-8.61c3.819-3.787,7.509-5.664,8.933-5.664.485,0,.712.615.712,1.295a4.692,4.692,0,0,0-.227,1.424c0,.809.939,1.489,2.622,1.489,1.813,0,2.913-1,2.913-2.687,0-4.564-1.748-6.441-3.56-6.441-3.69,0-7.768,2.492-11.3,5.405h-.1v-2.363a2.136,2.136,0,0,0,.388-1.262c0-1.262-1.036-2.007-3.01-2.007-1.715,0-3.14,1-3.14,2.169l.453,1.521Zm60.656-10.2c4.273,7.412,5.179,9.289,5.179,9.9,0,.486-.259,1.068-.259,1.683,0,1.327,1.133,2.169,3.107,2.169,2.169,0,3.2-1.2,3.2-3.042,0-1.489-3.172-7.445-8.027-15.342-1.23-2.2-7.7-12.041-7.7-13.238,0-.583.291-1,.291-1.683,0-1.036-1.327-1.942-2.719-1.942a3.278,3.278,0,0,0-3.5,3.431,17.037,17.037,0,0,1-2.46,4.337l-11.588,18.093c-2.33,3.657-3.463,5.761-3.463,6.765,0,1.295.712,2.622,3.172,2.622,2.557,0,3.237-1.262,3.237-2.266,0-.615-.1-1.327-.065-1.942.065-.615.842-1.845,5.179-8.61Zm-13.756-3.463,6.247-10.422,5.244,9.743Zm29.584,12.979a2.3,2.3,0,0,0-.518,1.359c0,1.942,1.618,2.816,3.5,2.816,2.007,0,3.269-1.456,3.269-2.363a2.347,2.347,0,0,0-.906-1.78v-25.505a4.41,4.41,0,0,0,.712-2.331,2.819,2.819,0,0,0-2.978-2.654c-2.848,0-3.593.777-3.593,3.14a5.221,5.221,0,0,0,.518,1.877Zm12.559,0a2.154,2.154,0,0,0-.55,1.359c0,1.942,1.618,2.816,3.5,2.816,2.007,0,3.3-1.456,3.3-2.363a2.288,2.288,0,0,0-.939-1.78v-25.505a4.426,4.426,0,0,0,.744-2.331,2.849,2.849,0,0,0-3.01-2.654c-2.848,0-3.593.777-3.593,3.14a4.676,4.676,0,0,0,.55,1.877Zm37.676-.647a3.221,3.221,0,0,0-.55,2.039c0,2.427,1.036,2.848,2.687,2.848,2.654-.065,3.787-1.165,3.787-2.784a3.378,3.378,0,0,0-.485-1.521v-11.588c3.01-4.078,8.351-7.218,12.429-10.94.744-.744,2.072-1.586,2.784-2.363.712-.809,1.651-1.586,1.651-2.848a2.639,2.639,0,0,0-2.589-2.719,3.183,3.183,0,0,0-3.2,2.039,7.522,7.522,0,0,1-1.424,1.618c-3.852,3.884-9.1,6.927-12.235,10.649h-.1c-3.2-4.175-10-7.768-13.5-12.105.065-1.262-1.068-2.2-2.589-2.2a3.289,3.289,0,0,0-3.2,2.945,2.492,2.492,0,0,0,1.618,2.557c4.337,4.888,11.264,8.124,14.921,13.3Zm35.28-18.9c-9.872,0-18.19,6.8-18.19,16.087,0,5.7,5.276,8.318,9.1,8.318,5.858,0,9-.971,14.112-4.985,1.586-1.23,5.082-5.114,5.082-9.516,0-3.787-1.942-9.9-10.034-9.9Zm-.777,4.337c3.949,0,5.47,2.622,5.47,5.859a9.253,9.253,0,0,1-4.337,7.185,13.087,13.087,0,0,1-8.254,2.686,4.8,4.8,0,0,1-4.887-4.823c0-5.923,6.02-10.908,11.944-10.908Zm21.621-.356a1.859,1.859,0,0,0,.453-1.262c0-1.748-1.715-2.266-2.751-2.266-1.618,0-3.3.518-3.3,2.46,0,.421.259.906.291,1.327v14.242c0,3.042,3.172,5.891,5.956,5.891,5.179,0,8.9-2.589,11.911-5.308v1.424c-.162.453-.55.874-.55,1.424,0,1.2.647,1.813,2.848,1.813,1.813,0,3.431-.777,3.431-2.039a3.1,3.1,0,0,0-.486-1.424v-16.507c.388-2.945-1.457-3.237-3.172-3.237-1.845,0-2.46.583-2.46,2.1a6.884,6.884,0,0,0,.324,1.295v10.163c-2.881,3.01-7.38,5.47-10.034,5.47a2.724,2.724,0,0,1-2.46-2.266Zm24.891,16.248a1.764,1.764,0,0,0-.68,1.392c0,1.327.874,2.1,2.751,2.1,2.848,0,3.819-.777,3.819-2.4a3.27,3.27,0,0,0-.583-1.618v-8.61c3.852-3.787,7.542-5.664,8.966-5.664.486,0,.68.615.68,1.295a6.058,6.058,0,0,0-.194,1.424c0,.809.939,1.489,2.589,1.489,1.845,0,2.913-1,2.913-2.687,0-4.564-1.715-6.441-3.528-6.441-3.69,0-7.768,2.492-11.329,5.405h-.1v-2.363a2.136,2.136,0,0,0,.388-1.262c0-1.262-1.036-2.007-2.978-2.007-1.748,0-3.172,1-3.172,2.169l.453,1.521Zm42.142-11.685,21.136-1.489v12.17a4.487,4.487,0,0,0-.583,2.007c0,1.392,1.78,2.492,3.14,2.492,1.618-.032,3.334-.842,3.334-2.039a4.5,4.5,0,0,0-.421-2.039v-25.894a3.808,3.808,0,0,0,.486-1.91c0-1.036-1.91-2.2-3.3-2.2-1.521,0-3.075,1.068-3.075,2.525a3.93,3.93,0,0,0,.421,2.039v8.092l-21.136,1.457v-9.969a3.306,3.306,0,0,0,.453-1.877c0-1.2-1.489-2.266-2.622-2.266-2.1,0-3.722,1.23-3.722,2.525a4.327,4.327,0,0,0,.421,1.521v10.422c-.615.162-.939,1.392-.939,3.043a2.085,2.085,0,0,0,.939,1.651v10.746a4.007,4.007,0,0,0-.583,1.877c0,1.165.971,2.3,3.69,2.3a2.639,2.639,0,0,0,2.751-2.46,6.27,6.27,0,0,0-.388-1.845Zm50.4-8.545c-9.872,0-18.19,6.8-18.19,16.087,0,5.7,5.276,8.318,9.1,8.318,5.858,0,9-.971,14.112-4.985,1.586-1.23,5.082-5.114,5.082-9.516,0-3.787-1.942-9.9-10.034-9.9Zm-.777,4.337c3.916,0,5.438,2.622,5.438,5.859a9.3,9.3,0,0,1-4.3,7.185,13.115,13.115,0,0,1-8.286,2.686,4.79,4.79,0,0,1-4.855-4.823c0-5.923,5.988-10.908,11.944-10.908Zm31.947-4.337c-9.872,0-18.19,6.8-18.19,16.087,0,5.7,5.276,8.318,9.1,8.318,5.858,0,9-.971,14.112-4.985,1.586-1.23,5.082-5.114,5.082-9.516,0-3.787-1.942-9.9-10.034-9.9ZM-76.1-838.8c3.916,0,5.47,2.622,5.47,5.859,0,2.427-1.554,5.243-4.337,7.185a13.087,13.087,0,0,1-8.254,2.686,4.8,4.8,0,0,1-4.887-4.823c0-5.923,6.02-10.908,11.944-10.908Zm21.686-11.264a2.769,2.769,0,0,0,.453-1.489c0-1.974-1.133-2.557-3.107-2.557-2.46,0-3.3,1.165-3.3,2.687a3.061,3.061,0,0,0,.647,1.618v25.959a2.31,2.31,0,0,0-.486,1.618c0,2.233,1.748,2.816,3.075,2.816,2.169,0,3.269-.939,3.269-2.784a8.428,8.428,0,0,0-.55-1.748v-5.858h.1c2.1,1.78,3.334,2.751,4.37,3.593l7.186,5.761a1.966,1.966,0,0,0,1.974,1.359,3.047,3.047,0,0,0,3.269-2.978,1.841,1.841,0,0,0-2.039-2.007L-50.075-832.2l9.484-7.121a2.19,2.19,0,0,0,2.072-2.331,2.767,2.767,0,0,0-2.784-2.881,1.907,1.907,0,0,0-1.942,1.392l-6.927,5.114c-1.036.841-2.266,1.78-4.143,3.463h-.1Zm40.848,15.245c-14.954.647-21.686,6.6-21.686,11.652,0,3.237,3.075,4.434,6.053,4.434,5.761,0,10.519-2.039,15.439-6.441h.162v2.428a3,3,0,0,0-.486,1.456c0,1.165.68,1.877,2.33,1.877,1.974,0,3.787-.583,3.787-2.1a2.221,2.221,0,0,0-.421-1.392v-15.051c0-3.269-2.557-5.308-6.409-5.308-5.956,0-10.617,1.262-14.145,3.269-1-.259-2.33,1.2-2.33,2.363,0,1.036,1,2.492,2.136,2.492,1.554,0,2.4-.971,2.3-1.457a23.009,23.009,0,0,1,10.681-2.557c1.748,0,2.589.712,2.589,2.2Zm-.032,4.92c0,1.845-8.577,6.862-13.724,6.862-1.489,0-2.428-.291-2.428-1.2,0-2.3,5.923-6.7,16.151-7.185Zm30.587,6.829a2.417,2.417,0,0,0-.615,1.683c0,1.262,1.295,1.974,2.816,1.974,1.813,0,3.5-1.359,3.5-2.557,0-.421-.356-.777-.388-1.133v-13.3c0-4.078-1.2-6.053-4.629-6.053-3.852,0-9.1,1.942-12.979,5.179H4.528V-850a5.693,5.693,0,0,0,.55-1.683c0-1.586-1.877-2.492-2.654-2.492-2.2,0-3.722,1-3.722,3.01,0,.486.421,1.068.518,1.554v26.638a3.671,3.671,0,0,0-.324,1.845c0,1.1.777,1.716,2.363,1.716,1.651,0,3.658-.939,3.658-2.3a3.276,3.276,0,0,0-.388-1.521v-8.513c3.463-4.014,8.61-5.7,10.875-5.7,1.165,0,1.586.518,1.586,2.622Zm25.149-.518a3,3,0,0,0-.583,1.456c0,2.039,1.521,2.719,3.5,2.719,1.78,0,2.751-.874,2.751-2.4a3.506,3.506,0,0,0-.55-1.78q0-9.71-.1-19.129l.162.032c1.392,2.525,4.726,6.182,9.645,10.163,3.884,3.172,8.9,7.995,10.714,10.617.842,1.23,1.586,2.492,3.3,2.492,2.072,0,2.978-.356,2.978-1.78a2.131,2.131,0,0,0-.68-1.715v-27.156a4.408,4.408,0,0,0,.485-1.845c0-1.359-1.748-2.136-3.334-2.136-1.489,0-2.751.68-2.751,2.492a3.81,3.81,0,0,0,.486,1.424c0,7.283,0,14.306.1,21.233h-.1c-.874-1.521-4.24-4.726-8.124-7.865a58.842,58.842,0,0,1-9.807-9.678c-1.295-1.812-2.428-3.787-2.428-4.952,0-1.2-.68-2.1-2.784-2.1-2.33,0-3.269,1.424-3.269,2.784a3.762,3.762,0,0,0,.388,1.651ZM96.1-843.012c-8.415,0-16.928,7.024-16.928,16.669,0,5.47,4.046,7.574,9.743,7.574,11.426,0,16.443-6.182,16.443-7.768a2.336,2.336,0,0,0-2.557-2.557c-1.942,0-3.075,1.295-2.881,2.46a17.167,17.167,0,0,1-10.422,3.4c-2.945,0-5.017-1.1-5.017-3.528a6.677,6.677,0,0,1,.356-2.2l3.107-.453c16.119-2.266,17.8-4.823,17.8-6.927,0-1.618-1.78-6.668-9.613-6.668Zm-.065,4.143c3.107,0,4.143,1.521,4.143,2.525,0,.68-1.813,1.586-14.145,3.4A11.847,11.847,0,0,1,96-838.869Zm30.393-4.143c-8.383,0-16.9,7.024-16.9,16.669,0,5.47,4.014,7.574,9.71,7.574,11.426,0,16.443-6.182,16.443-7.768a2.321,2.321,0,0,0-2.557-2.557c-1.91,0-3.043,1.295-2.848,2.46a17.252,17.252,0,0,1-10.422,3.4c-2.945,0-5.017-1.1-5.017-3.528a6.694,6.694,0,0,1,.324-2.2l3.107-.453c16.119-2.266,17.8-4.823,17.8-6.927,0-1.618-1.78-6.668-9.581-6.668Zm-.032,4.143c3.075,0,4.111,1.521,4.111,2.525,0,.68-1.813,1.586-14.145,3.4a11.847,11.847,0,0,1,9.969-5.923Zm35.993-1.456a9.871,9.871,0,0,0-4.823-1.036c-7.93,0-18.449,8.286-18.449,16.669,0,4.24,3.5,5.923,6.7,5.923,6.085,0,13.368-3.431,16.572-7.7v3.4a2.033,2.033,0,0,0-.259,1.295c0,1.651,1,2.363,2.816,2.363,2.169,0,3.4-.68,3.4-2.4a2.3,2.3,0,0,0-.647-1.521v-26.282l.13-1.813a2.667,2.667,0,0,0-2.848-2.622c-1.715,0-3.269.939-3.269,2.492,0,.906.194,1.521.68,1.78Zm-4.37,3.2c2.492,0,4.4,1.133,4.4,3.237,0,3.2-2.2,4.888-4.952,6.765-2.848,1.942-6.247,3.625-10.034,3.625-2.169,0-2.913-.939-2.913-2.525,0-4.434,7.93-11.1,13.432-11.1Zm32.5-6.312c-7.25,0-16.928,3.463-16.928,9.71,0,3.107,2.266,4.92,5.47,4.92a37.361,37.361,0,0,0,8.254-1.2c3.01-.615,4.823-1.2,6.441-1.2,2.007,0,3.01.68,3.01,1.942,0,3.884-7.865,6.182-13.594,6.182a7.43,7.43,0,0,1-4.37-1.424,1.342,1.342,0,0,0,.1-.518c0-.485-.324-1.359-2.007-1.359a2.426,2.426,0,0,0-2.719,2.557c0,2.622,4.143,4.887,8.869,4.887,5.5,0,19.064-2.622,19.064-11.231,0-3.658-3.237-5.276-6.83-5.276a40.675,40.675,0,0,0-7.962,1.2,37.922,37.922,0,0,1-6.506,1.2c-1.327,0-1.845-.453-1.845-1.262,0-2.557,5.632-5.017,11.49-5.017,3.884,0,4.24.421,4.467.777.259.259.453.647,1.651.647a2.139,2.139,0,0,0,2.2-2.266c0-2.007-3.14-3.269-8.221-3.269Z" transform="translate(672.501 1486.889)" fill="#bebdbd" fill-rule="evenodd"/>
    <path id="Path_33" data-name="Path 33" d="M6155.388,529.718l.979-18.182,14.48,7.839,18.61-12.534v24.245s-4.192,4-9.2,9.115c-.726-3.516,1.173-2.342.824-1.447-.83,2.078-2.116,8.329-3.79,9.962-2.707,2.642-9.384,3.538-9.384,3.538Z" transform="translate(-5730)"/>
    <path id="Path_34" data-name="Path 34" d="M6561.8,484.207c4.876-1.472,14.37-.763,14.37-.763l3.864,27.231-5.028,6.9s-5.486-4.492-7.6-7.666-3.01-8.988-3.01-8.988l-7.728,6.44-4.6-10.856,4.6-7.176S6556.924,485.679,6561.8,484.207Z" transform="translate(-5730)"/>
    <path id="Path_35" data-name="Path 35" d="M6044.486,431.4l23.919-4.954,6.086,19.249h-26.042Z" transform="translate(-5730)"/>
  </g>
</svg>
